<svg xmlns="http://www.w3.org/2000/svg" width="120" height="120" viewBox="0 0 120 120">
  <defs>
    <pattern id="frost-crystals" patternUnits="userSpaceOnUse" width="40" height="40">
      <!-- Main crystal -->
      <g stroke="rgba(200,220,240,0.08)" stroke-width="0.5" fill="none">
        <line x1="20" y1="10" x2="20" y2="30"/>
        <line x1="10" y1="20" x2="30" y2="20"/>
        <!-- Diagonal branches -->
        <line x1="14" y1="14" x2="26" y2="26"/>
        <line x1="26" y1="14" x2="14" y2="26"/>
        <!-- Small branches -->
        <line x1="20" y1="12" x2="17" y2="9"/>
        <line x1="20" y1="12" x2="23" y2="9"/>
        <line x1="20" y1="28" x2="17" y2="31"/>
        <line x1="20" y1="28" x2="23" y2="31"/>
        <line x1="12" y1="20" x2="9" y2="17"/>
        <line x1="12" y1="20" x2="9" y2="23"/>
        <line x1="28" y1="20" x2="31" y2="17"/>
        <line x1="28" y1="20" x2="31" y2="23"/>
      </g>
      <!-- Smaller accent crystal -->
      <g stroke="rgba(200,220,240,0.05)" stroke-width="0.3" fill="none" transform="translate(32,32) scale(0.4)">
        <line x1="10" y1="0" x2="10" y2="20"/>
        <line x1="0" y1="10" x2="20" y2="10"/>
        <line x1="3" y1="3" x2="17" y2="17"/>
        <line x1="17" y1="3" x2="3" y2="17"/>
      </g>
    </pattern>
    <!-- Subtle shimmer overlay -->
    <filter id="frost-shimmer">
      <feTurbulence type="fractalNoise" baseFrequency="0.05" numOctaves="2" result="shimmer"/>
      <feColorMatrix type="matrix" values="1 0 0 0 0  0 1 0 0 0  0 0 1 0 0.1  0 0 0 0.02 0"/>
    </filter>
  </defs>
  <rect width="100%" height="100%" fill="url(#frost-crystals)"/>
  <rect width="100%" height="100%" filter="url(#frost-shimmer)" fill="rgba(220,240,255,0.02)"/>
</svg>
